<svg width="430" height="932" viewBox="0 0 430 932" fill="none" xmlns="http://www.w3.org/2000/svg">
<g clip-path="url(#clip0_224_3717)">
<path d="M351.414 814.655C389.447 848.002 429.914 932.155 429.914 932.155H85.9141C85.9141 932.155 266.16 739.904 351.414 814.655Z" fill="#353839" stroke="#E30022" stroke-width="3"/>
<path d="M240.914 584.155C250.914 573.155 258.115 558.509 246.414 548.655C236.914 540.655 171.914 617.656 171.914 617.656L111.04 584.155C111.04 584.155 126.118 565.381 117.914 570.655C110.914 575.155 113.414 567.655 111.04 564.156C110.45 563.285 110.414 560.224 108.414 558.654C106.414 557.085 108.414 567.654 105.145 570.156C101.876 572.657 95.9142 556.654 93.9142 558.155C91.9141 559.655 97.914 573.654 95.9141 573.155C93.9143 572.656 88.4141 560.154 88.4141 564.154C88.4141 568.154 89.2635 571.049 88.9141 571.655C88.3771 572.587 87.655 570.381 83.4141 567.654C76.4139 563.154 103.145 593.894 103.145 593.894C103.145 593.894 159.414 641.156 171.914 640.156C184.414 639.156 217.587 609.815 240.914 584.155Z" fill="#E30022"/>
<path d="M299.914 411.655L289.914 428.655L273.414 484.654C273.414 484.654 305.449 531.98 286.414 545.654C276.046 553.102 258.563 549.872 245.914 548.154C232.042 546.27 220.981 545.595 212.914 534.154C200.041 515.9 227.137 502.272 234.414 481.154C243.055 456.073 237.551 437.627 252.414 415.654C259.073 405.808 261.64 402.791 273.414 401.155C285.325 399.5 299.914 411.655 299.914 411.655Z" fill="#E30022"/>
<path d="M234.914 608.154C230.414 592.154 245.914 548.654 245.914 548.654L279.414 544.654C279.414 544.654 283.401 521.84 279.414 508.154C276.507 498.174 266.914 484.654 266.914 484.654L289.914 428.654C289.914 428.654 315.399 466.387 320.414 494.154C323.919 513.562 320.414 544.654 320.414 544.654L359.414 548.654C359.414 548.654 355.914 630.154 359.414 686.154C362.914 742.154 371.848 744.251 378.914 781.654C389.788 839.22 294.914 931.654 294.914 931.654H165.914C165.914 931.654 176.575 836.431 199.414 781.654C215.902 742.11 249.993 728.862 253.414 686.154C255.913 654.948 239.414 624.154 234.914 608.154Z" fill="#E30022"/>
<rect x="74.6249" y="575.208" width="53.653" height="8.25253" transform="rotate(-17.1246 74.6249 575.208)" stroke="#353839" stroke-width="2"/>
<rect x="49.2501" y="585.118" width="282.096" height="4.25253" transform="rotate(-17.1246 49.2501 585.118)" fill="#353839" stroke="#E30022" stroke-width="2"/>
<path d="M204.014 546.33C203.729 545.36 203.487 544.135 203.416 542.662L203.431 542.433L203.431 542.433L203.435 542.371C203.678 538.738 203.9 535.403 203.819 533.159C203.799 532.589 203.758 532.068 203.689 531.617C203.622 531.18 203.518 530.745 203.341 530.384C203.169 530.034 202.829 529.566 202.21 529.449C201.618 529.337 201.121 529.615 200.8 529.865C200.298 530.256 199.883 530.788 199.537 531.32C199.186 531.859 198.87 532.455 198.586 533.013C198.494 533.192 198.407 533.365 198.324 533.532C198.137 533.903 197.966 534.244 197.795 534.557C197.54 535.023 197.347 535.307 197.207 535.447C196.932 535.722 196.774 535.79 196.727 535.805C196.718 535.8 196.706 535.793 196.691 535.781C196.592 535.708 196.447 535.551 196.251 535.254C196.063 534.968 195.876 534.628 195.657 534.23L195.647 534.212L195.623 534.168C195.212 533.422 194.673 532.444 193.928 531.783C193.528 531.428 193.034 531.13 192.432 531.01C191.825 530.888 191.191 530.964 190.542 531.224C190.06 531.417 189.674 531.72 189.403 532.125C189.139 532.519 189.025 532.951 188.982 533.351C188.904 534.08 189.052 534.895 189.168 535.533C189.172 535.556 189.176 535.579 189.18 535.601C189.313 536.338 189.401 536.869 189.357 537.271C189.338 537.449 189.297 537.537 189.268 537.579C189.247 537.61 189.201 537.665 189.059 537.719C188.391 537.973 188.105 537.846 187.936 537.729C187.671 537.545 187.428 537.183 187.121 536.589C187.075 536.501 187.026 536.402 186.973 536.299C186.875 536.103 186.768 535.892 186.668 535.708C186.508 535.415 186.311 535.089 186.061 534.808C185.805 534.521 185.455 534.239 184.982 534.109C184.5 533.977 184.01 534.038 183.543 534.225C182.576 534.612 181.722 535.135 181.514 536.04C181.41 536.489 181.506 536.888 181.617 537.182C181.721 537.452 181.871 537.712 181.981 537.902C181.985 537.909 181.989 537.916 181.993 537.923C182.257 538.38 182.375 538.619 182.383 538.855C182.388 539.006 182.349 539.346 181.732 539.922C180.911 540.688 180.611 540.576 180.563 540.558C180.562 540.558 180.561 540.557 180.56 540.557C180.476 540.527 180.346 540.448 180.154 540.254C179.96 540.058 179.765 539.81 179.519 539.493C179.5 539.47 179.482 539.446 179.463 539.421C179.022 538.853 178.405 538.058 177.544 537.604C176.534 537.072 175.348 537.069 173.967 537.76C173.601 537.942 173.111 538.315 173.06 538.989C173.019 539.545 173.321 539.99 173.509 540.235C173.728 540.519 174.025 540.815 174.332 541.106C174.494 541.26 174.686 541.438 174.888 541.625C175.059 541.782 175.236 541.946 175.407 542.107C176.979 543.582 179.076 545.737 180.495 549.048L180.518 549.102L180.547 549.152C182.684 552.869 184.614 557.678 186.367 562.063L186.415 562.183C187.268 564.317 188.08 566.349 188.844 568.065C189.614 569.794 190.373 571.29 191.121 572.263C191.521 572.783 192.144 573.322 192.891 573.868C193.652 574.425 194.6 575.03 195.7 575.672C197.9 576.957 200.758 578.422 204.056 579.986C210.654 583.117 219.067 586.673 227.612 590.022C236.157 593.371 244.848 596.519 252.005 598.831C255.583 599.987 258.786 600.937 261.402 601.6C263.985 602.254 266.088 602.653 267.414 602.653C268.694 602.653 270.835 602.389 273.561 601.934C276.31 601.476 279.718 600.813 283.564 599.99C291.259 598.346 300.737 596.06 310.268 593.494C319.797 590.928 329.393 588.077 337.319 585.3C341.281 583.912 344.838 582.538 347.766 581.224C350.677 579.917 353.03 578.641 354.539 577.434C358.432 574.319 362.031 569.382 363.515 564.086C365.01 558.752 364.369 552.962 359.603 548.428C354.108 543.202 345.484 542.657 336.014 544.476C326.489 546.305 315.788 550.583 305.789 555.441C295.779 560.305 286.42 565.777 279.566 570.03C276.139 572.157 273.335 573.981 271.387 575.274C270.414 575.92 269.653 576.434 269.136 576.787C268.981 576.893 268.847 576.984 268.737 577.06L208.015 559.431L209.156 550.53C209.268 549.658 209.514 548.692 209.807 547.684C209.919 547.299 210.041 546.896 210.164 546.492C210.35 545.882 210.536 545.269 210.687 544.713C210.94 543.784 211.149 542.83 211.131 542.013C211.112 541.181 210.837 540.214 209.837 539.747C209.17 539.435 208.485 539.385 207.835 539.603C207.215 539.812 206.719 540.233 206.329 540.699C205.561 541.616 205.003 542.948 204.596 544.208C204.366 544.923 204.172 545.652 204.014 546.33Z" fill="#E30022" stroke="#353839" stroke-width="2"/>
<path d="M300.414 410.655L289.914 429.155C289.914 429.155 314.776 469.662 319.914 498.654C324.245 523.091 295.863 551.96 318.914 561.155C337.659 568.632 360.001 556.348 364.414 536.655C367.728 521.865 354.226 515.185 349.914 500.655C343.237 478.152 352.978 461.581 341.414 441.155C334.871 429.598 330.742 416.694 318.914 410.654C309.414 405.803 300.414 410.655 300.414 410.655Z" fill="#E30022"/>
<path d="M84.4453 577.654C82.9453 578.154 80.9453 567.154 82.4453 567.154C84.1021 567.154 84.2029 568.173 84.9453 569.654C85.3141 570.39 85.5059 577.301 84.4453 577.654Z" fill="#E30022"/>
<path d="M90.1988 574.137C88.8449 574.66 87.0397 563.154 88.3935 563.154C89.8891 563.154 89.98 564.22 90.6501 565.769C90.983 566.539 91.1561 573.767 90.1988 574.137Z" fill="#E30022"/>
<path d="M95.9604 573.131C94.1552 573.844 91.7482 558.154 93.5534 558.154C95.5474 558.154 95.6687 559.607 96.5621 561.72C97.0059 562.769 97.2368 572.626 95.9604 573.131Z" fill="#E30022"/>
<path d="M101.713 569.729C100.269 569.369 107.331 557.609 108.39 558.453C109.559 559.385 108.846 560.427 108.229 562.276C107.922 563.195 102.734 569.984 101.713 569.729Z" fill="#E30022"/>
</g>
<defs>
<clipPath id="clip0_224_3717">
<rect width="430" height="932" fill="white"/>
</clipPath>
</defs>
</svg>
