<svg width="430" height="932" viewBox="0 0 430 932" fill="none" xmlns="http://www.w3.org/2000/svg">
<g clip-path="url(#clip0_57_514)">
<path d="M351.414 814.655C389.447 848.002 429.914 932.155 429.914 932.155H85.9136C85.9136 932.155 266.159 739.904 351.414 814.655Z" fill="#E30022" stroke="#353839" stroke-width="3"/>
<path d="M240.914 584.155C250.914 573.155 258.114 558.509 246.414 548.655C236.914 540.655 171.914 617.656 171.914 617.656L111.04 584.155C111.04 584.155 126.117 565.381 117.914 570.655C110.914 575.155 113.414 567.655 111.04 564.156C110.45 563.285 110.414 560.224 108.414 558.654C106.414 557.085 108.414 567.654 105.145 570.156C101.876 572.657 95.9137 556.654 93.9137 558.155C91.9136 559.655 97.9135 573.654 95.9136 573.155C93.9138 572.656 88.4136 560.154 88.4136 564.154C88.4136 568.154 89.263 571.049 88.9136 571.655C88.3767 572.587 87.6545 570.381 83.4136 567.654C76.4135 563.154 103.145 593.894 103.145 593.894C103.145 593.894 159.414 641.156 171.914 640.156C184.414 639.156 217.587 609.815 240.914 584.155Z" fill="#353839"/>
<path d="M299.914 411.655L289.914 428.655L273.414 484.654C273.414 484.654 305.449 531.98 286.414 545.654C276.046 553.102 258.563 549.872 245.914 548.154C232.042 546.27 220.981 545.595 212.914 534.154C200.041 515.9 227.137 502.272 234.414 481.154C243.055 456.073 237.551 437.627 252.414 415.654C259.073 405.808 261.64 402.791 273.414 401.155C285.325 399.5 299.914 411.655 299.914 411.655Z" fill="#353839"/>
<path d="M234.914 608.154C230.414 592.154 245.914 548.654 245.914 548.654L279.414 544.654C279.414 544.654 283.4 521.84 279.414 508.154C276.506 498.174 266.914 484.654 266.914 484.654L289.914 428.654C289.914 428.654 315.399 466.387 320.414 494.154C323.919 513.562 320.414 544.654 320.414 544.654L359.414 548.654C359.414 548.654 355.914 630.154 359.414 686.154C362.914 742.154 371.848 744.251 378.914 781.654C389.788 839.22 294.914 931.654 294.914 931.654H165.914C165.914 931.654 176.574 836.431 199.414 781.654C215.902 742.11 249.993 728.862 253.414 686.154C255.913 654.948 239.414 624.154 234.914 608.154Z" fill="#353839"/>
<rect x="74.6249" y="575.208" width="53.653" height="8.25253" transform="rotate(-17.1246 74.6249 575.208)" stroke="#E30022" stroke-width="2"/>
<rect x="49.2501" y="585.118" width="282.096" height="4.25253" transform="rotate(-17.1246 49.2501 585.118)" fill="#E30022" stroke="#353839" stroke-width="2"/>
<path d="M204.014 546.33C203.729 545.36 203.486 544.135 203.415 542.662L203.43 542.433L203.43 542.433L203.435 542.371C203.677 538.738 203.9 535.403 203.819 533.159C203.798 532.589 203.758 532.068 203.689 531.617C203.621 531.18 203.518 530.745 203.341 530.384C203.169 530.034 202.828 529.566 202.209 529.449C201.618 529.337 201.121 529.615 200.8 529.865C200.297 530.256 199.882 530.788 199.537 531.32C199.186 531.859 198.869 532.455 198.585 533.013C198.494 533.192 198.407 533.365 198.323 533.532C198.137 533.903 197.966 534.244 197.794 534.557C197.539 535.023 197.347 535.307 197.206 535.447C196.931 535.722 196.774 535.79 196.726 535.805C196.718 535.8 196.706 535.793 196.69 535.781C196.591 535.708 196.446 535.551 196.251 535.254C196.063 534.968 195.876 534.628 195.656 534.23L195.646 534.212L195.622 534.168C195.211 533.422 194.673 532.444 193.928 531.783C193.527 531.428 193.034 531.13 192.432 531.01C191.825 530.888 191.191 530.964 190.542 531.224C190.06 531.417 189.673 531.72 189.402 532.125C189.139 532.519 189.025 532.951 188.982 533.351C188.904 534.08 189.051 534.895 189.167 535.533C189.171 535.556 189.175 535.579 189.18 535.601C189.313 536.338 189.401 536.869 189.357 537.271C189.338 537.449 189.297 537.537 189.268 537.579C189.246 537.61 189.201 537.665 189.059 537.719C188.39 537.973 188.105 537.846 187.936 537.729C187.671 537.545 187.427 537.183 187.12 536.589C187.075 536.501 187.025 536.402 186.973 536.299C186.874 536.103 186.768 535.892 186.668 535.708C186.508 535.415 186.311 535.089 186.06 534.808C185.805 534.521 185.454 534.239 184.982 534.109C184.499 533.977 184.01 534.038 183.542 534.225C182.575 534.612 181.721 535.135 181.513 536.04C181.41 536.489 181.505 536.888 181.617 537.182C181.72 537.452 181.87 537.712 181.981 537.902C181.985 537.909 181.989 537.916 181.993 537.923C182.257 538.38 182.375 538.619 182.382 538.855C182.387 539.006 182.349 539.346 181.731 539.922C180.91 540.688 180.61 540.576 180.562 540.558C180.561 540.558 180.56 540.557 180.559 540.557C180.476 540.527 180.345 540.448 180.153 540.254C179.959 540.058 179.764 539.81 179.518 539.493C179.5 539.47 179.481 539.446 179.462 539.421C179.022 538.853 178.405 538.058 177.543 537.604C176.533 537.072 175.348 537.069 173.966 537.76C173.6 537.942 173.11 538.315 173.06 538.989C173.018 539.545 173.32 539.99 173.509 540.235C173.728 540.519 174.025 540.815 174.332 541.106C174.493 541.26 174.686 541.438 174.888 541.625C175.058 541.782 175.235 541.946 175.407 542.107C176.979 543.582 179.075 545.737 180.494 549.048L180.517 549.102L180.547 549.152C182.683 552.869 184.613 557.678 186.366 562.063L186.414 562.183C187.267 564.317 188.079 566.349 188.844 568.065C189.614 569.794 190.373 571.29 191.121 572.263C191.521 572.783 192.144 573.322 192.891 573.868C193.652 574.425 194.6 575.03 195.699 575.672C197.899 576.957 200.758 578.422 204.055 579.986C210.653 583.117 219.067 586.673 227.611 590.022C236.156 593.371 244.848 596.519 252.005 598.831C255.582 599.987 258.786 600.937 261.401 601.6C263.985 602.254 266.087 602.653 267.414 602.653C268.693 602.653 270.834 602.389 273.561 601.934C276.31 601.476 279.717 600.813 283.564 599.99C291.259 598.346 300.737 596.06 310.267 593.494C319.796 590.928 329.392 588.077 337.318 585.3C341.281 583.912 344.838 582.538 347.766 581.224C350.677 579.917 353.03 578.641 354.538 577.434C358.432 574.319 362.03 569.382 363.514 564.086C365.009 558.752 364.368 552.962 359.603 548.428C354.108 543.202 345.484 542.657 336.014 544.476C326.489 546.305 315.788 550.583 305.789 555.441C295.779 560.305 286.419 565.777 279.566 570.03C276.138 572.157 273.335 573.981 271.387 575.274C270.413 575.92 269.653 576.434 269.136 576.787C268.98 576.893 268.847 576.984 268.736 577.06L208.014 559.431L209.155 550.53C209.267 549.658 209.513 548.692 209.806 547.684C209.918 547.299 210.041 546.896 210.163 546.492C210.349 545.882 210.536 545.269 210.687 544.713C210.939 543.784 211.149 542.83 211.13 542.013C211.112 541.181 210.836 540.214 209.837 539.747C209.169 539.435 208.484 539.385 207.834 539.603C207.214 539.812 206.719 540.233 206.329 540.699C205.561 541.616 205.003 542.948 204.596 544.208C204.365 544.923 204.172 545.652 204.014 546.33Z" fill="#353839" stroke="#E30022" stroke-width="2"/>
<path d="M300.414 410.655L289.914 429.155C289.914 429.155 314.775 469.662 319.914 498.654C324.244 523.091 295.862 551.96 318.914 561.155C337.658 568.632 360.001 556.348 364.414 536.655C367.728 521.865 354.225 515.185 349.914 500.655C343.236 478.152 352.978 461.581 341.414 441.155C334.871 429.598 330.741 416.694 318.914 410.654C309.414 405.803 300.414 410.655 300.414 410.655Z" fill="#353839"/>
<path d="M84.4448 577.654C82.9448 578.154 80.9449 567.154 82.4448 567.154C84.1016 567.154 84.2024 568.173 84.9448 569.654C85.3136 570.39 85.5054 577.301 84.4448 577.654Z" fill="#353839"/>
<path d="M90.1983 574.137C88.8444 574.66 87.0392 563.154 88.3931 563.154C89.8886 563.154 89.9795 564.22 90.6496 565.769C90.9825 566.539 91.1556 573.767 90.1983 574.137Z" fill="#353839"/>
<path d="M95.9599 573.131C94.1547 573.844 91.7477 558.154 93.5529 558.154C95.5469 558.154 95.6682 559.607 96.5617 561.72C97.0055 562.769 97.2363 572.626 95.9599 573.131Z" fill="#353839"/>
<path d="M101.713 569.729C100.269 569.369 107.331 557.609 108.39 558.453C109.559 559.385 108.846 560.427 108.229 562.276C107.922 563.195 102.734 569.984 101.713 569.729Z" fill="#353839"/>
</g>
<defs>
<clipPath id="clip0_57_514">
<rect width="430" height="932" fill="white"/>
</clipPath>
</defs>
</svg>
